<svg width="29" height="20" viewBox="0 0 29 20" fill="none" xmlns="http://www.w3.org/2000/svg">
<path d="M26.7416 0H2.02247C0.898876 0 0 0.898876 0 2.02247V17.9775C0 19.1011 0.898876 20 2.02247 20H26.7416C27.8652 20 28.764 19.1011 28.764 17.9775V2.02247C28.764 0.898876 27.8652 0 26.7416 0ZM27.1011 17.9326C27.1011 18.1124 26.9663 18.2921 26.7416 18.2921H2.02247C1.8427 18.2921 1.66292 18.1573 1.66292 17.9326V7.50562H27.1011V17.9326ZM27.1011 4.53933H1.66292V2.02247C1.66292 1.8427 1.79775 1.66292 2.02247 1.66292H26.7416C26.9213 1.66292 27.1011 1.79775 27.1011 2.02247V4.53933Z" fill="white"/>
<path d="M23.281 16.2687C24.3596 16.2687 25.2136 15.4148 25.2136 14.3361C25.2136 13.2575 24.3596 12.4035 23.281 12.4035C22.2023 12.4035 21.3484 13.2575 21.3484 14.3361C21.3484 15.4148 22.2023 16.2687 23.281 16.2687ZM20.2697 16.2687C20.6293 16.2687 20.9439 16.1788 21.2136 16.044C20.854 15.5945 20.6293 15.0103 20.6293 14.3811C20.6293 13.7518 20.854 13.1676 21.2136 12.7181C20.9439 12.5833 20.6293 12.4934 20.2697 12.4934C19.236 12.4934 18.3372 13.3474 18.3372 14.426C18.3372 15.4148 19.1911 16.2687 20.2697 16.2687ZM3.95514 11.7294H10.8315C11.1911 11.7294 11.4608 11.4597 11.4608 11.1002C11.4608 10.7406 11.1911 10.4709 10.8315 10.4709H3.95514C3.59559 10.4709 3.32593 10.7406 3.32593 11.1002C3.32593 11.4148 3.64053 11.7294 3.95514 11.7294ZM3.95514 14.3811H12.2697C12.6293 14.3811 12.899 14.1114 12.899 13.7518C12.899 13.3923 12.6293 13.1226 12.2697 13.1226H3.95514C3.59559 13.1226 3.32593 13.3923 3.32593 13.7518C3.32593 14.1114 3.64053 14.3811 3.95514 14.3811Z" fill="white"/>
</svg>
