<svg width="38" height="27" viewBox="0 0 38 27" fill="none" xmlns="http://www.w3.org/2000/svg">
<path d="M34.9548 0.821564H2.96884C1.51493 0.821564 0.351807 1.98469 0.351807 3.43859V24.0841C0.351807 25.538 1.51493 26.7011 2.96884 26.7011H34.9548C36.4087 26.7011 37.5718 25.538 37.5718 24.0841V3.43859C37.5718 1.98469 36.4087 0.821564 34.9548 0.821564ZM35.42 24.0259C35.42 24.2585 35.2455 24.4911 34.9548 24.4911H2.96884C2.73621 24.4911 2.50359 24.3167 2.50359 24.0259V10.5337H35.42V24.0259ZM35.42 6.69534H2.50359V3.43859C2.50359 3.20597 2.67806 2.97334 2.96884 2.97334H34.9548C35.1874 2.97334 35.42 3.14781 35.42 3.43859V6.69534Z" fill="white"/>
<path d="M30.4768 21.8725C31.8725 21.8725 32.9775 20.7675 32.9775 19.3718C32.9775 17.976 31.8725 16.871 30.4768 16.871C29.081 16.871 27.976 17.976 27.976 19.3718C27.976 20.7675 29.081 21.8725 30.4768 21.8725ZM26.5803 21.8725C27.0455 21.8725 27.4526 21.7562 27.8016 21.5817C27.3363 21.0001 27.0455 20.2441 27.0455 19.4299C27.0455 18.6157 27.3363 17.8597 27.8016 17.2781C27.4526 17.1037 27.0455 16.9874 26.5803 16.9874C25.2427 16.9874 24.0796 18.0923 24.0796 19.4881C24.0796 20.7675 25.1845 21.8725 26.5803 21.8725ZM5.46958 15.9987H14.3675C14.8327 15.9987 15.1817 15.6498 15.1817 15.1845C15.1817 14.7193 14.8327 14.3703 14.3675 14.3703H5.46958C5.00433 14.3703 4.6554 14.7193 4.6554 15.1845C4.6554 15.5916 5.06249 15.9987 5.46958 15.9987ZM5.46958 19.4299H16.2285C16.6937 19.4299 17.0427 19.081 17.0427 18.6157C17.0427 18.1505 16.6937 17.8015 16.2285 17.8015H5.46958C5.00433 17.8015 4.6554 18.1505 4.6554 18.6157C4.6554 19.081 5.06249 19.4299 5.46958 19.4299Z" fill="white"/>
</svg>
